<?xml version="1.0" encoding="UTF-8" standalone="no"?>
<!-- Created with Inkscape (http://www.inkscape.org/) -->

<svg
   version="1.1"
   id="svg1"
   width="219.80933"
   height="53.333332"
   viewBox="0 0 219.80933 53.333332"
   sodipodi:docname="US_ListenOn_AmazonMusic_Button.ai"
   xmlns:inkscape="http://www.inkscape.org/namespaces/inkscape"
   xmlns:sodipodi="http://sodipodi.sourceforge.net/DTD/sodipodi-0.dtd"
   xmlns="http://www.w3.org/2000/svg"
   xmlns:svg="http://www.w3.org/2000/svg">
  <defs
     id="defs1">
    <clipPath
       clipPathUnits="userSpaceOnUse"
       id="clipPath2">
      <path
         d="M 0,40 H 164.857 V 0 H 0 Z"
         transform="translate(-155.32731,-40.000001)"
         id="path2" />
    </clipPath>
    <clipPath
       clipPathUnits="userSpaceOnUse"
       id="clipPath4">
      <path
         d="M 0,40 H 164.857 V 0 H 0 Z"
         transform="translate(-8.4448,-0.87499977)"
         id="path4" />
    </clipPath>
    <clipPath
       clipPathUnits="userSpaceOnUse"
       id="clipPath6">
      <path
         d="M 0,40 H 164.857 V 0 H 0 Z"
         transform="translate(-123.1585,-25.643701)"
         id="path6" />
    </clipPath>
  </defs>
  <sodipodi:namedview
     id="namedview1"
     pagecolor="#ffffff"
     bordercolor="#000000"
     borderopacity="0.25"
     inkscape:showpageshadow="2"
     inkscape:pageopacity="0.0"
     inkscape:pagecheckerboard="0"
     inkscape:deskcolor="#d1d1d1">
    <inkscape:page
       x="0"
       y="0"
       inkscape:label="1"
       id="page1"
       width="219.80933"
       height="53.333332"
       margin="0"
       bleed="0" />
  </sodipodi:namedview>
  <g
     id="layer-MC0"
     inkscape:groupmode="layer"
     inkscape:label="US_ListenOn_AmazonMusic_button_Indigo_RGB">
    <path
       id="path1"
       d="m 0,0 h -145.793 c -0.366,0 -0.729,0 -1.094,-0.002 -0.306,-0.002 -0.61,-0.008 -0.919,-0.013 -0.666,-0.016 -1.34,-0.057 -2.004,-0.176 -0.67,-0.118 -1.292,-0.318 -1.901,-0.627 -0.599,-0.307 -1.146,-0.705 -1.619,-1.179 -0.478,-0.474 -0.875,-1.023 -1.178,-1.621 -0.311,-0.609 -0.508,-1.234 -0.625,-1.903 -0.121,-0.663 -0.162,-1.333 -0.179,-2.002 -0.009,-0.307 -0.01,-0.615 -0.015,-0.921 v -1.092 -20.929 -1.094 c 0.005,-0.31 0.006,-0.611 0.015,-0.921 0.017,-0.67 0.058,-1.34 0.179,-2.002 0.117,-0.67 0.314,-1.298 0.625,-1.905 0.303,-0.595 0.7,-1.144 1.178,-1.614 0.473,-0.478 1.02,-0.875 1.619,-1.179 0.609,-0.312 1.231,-0.509 1.901,-0.631 0.664,-0.119 1.338,-0.158 2.004,-0.176 0.309,-0.007 0.613,-0.011 0.919,-0.011 0.365,-0.002 0.728,-0.002 1.094,-0.002 L 0,-40 c 0.359,0 0.725,0 1.084,0.002 0.305,0 0.617,0.004 0.922,0.011 0.67,0.018 1.342,0.057 2,0.176 0.67,0.122 1.293,0.319 1.908,0.631 0.598,0.304 1.145,0.701 1.617,1.179 0.477,0.47 0.873,1.019 1.182,1.614 0.307,0.607 0.506,1.235 0.619,1.905 0.123,0.662 0.162,1.332 0.186,2.002 0.004,0.31 0.004,0.611 0.004,0.921 0.007,0.364 0.007,0.725 0.007,1.094 v 20.929 c 0,0.366 0,0.729 -0.007,1.092 0,0.306 0,0.614 -0.004,0.921 -0.024,0.669 -0.063,1.339 -0.186,2.002 -0.113,0.669 -0.312,1.294 -0.619,1.903 -0.309,0.598 -0.705,1.147 -1.182,1.621 -0.472,0.474 -1.019,0.872 -1.617,1.179 -0.615,0.309 -1.238,0.509 -1.908,0.627 -0.658,0.119 -1.33,0.16 -2,0.177 C 1.701,-0.01 1.389,-0.004 1.084,-0.002 0.725,0 0.359,0 0,0"
       style="fill:#14191a;fill-opacity:1;fill-rule:nonzero;stroke:none"
       transform="matrix(1.3333333,0,0,-1.3333333,207.10307,0)"
       clip-path="url(#clipPath2)" />
    <path
       id="path3"
       d="M 0,0 C -0.305,0 -0.602,0.004 -0.904,0.011 -1.463,0.026 -2.126,0.058 -2.773,0.174 -3.384,0.284 -3.926,0.464 -4.43,0.722 -4.952,0.986 -5.42,1.328 -5.827,1.738 -6.241,2.145 -6.581,2.611 -6.848,3.135 -7.107,3.64 -7.284,4.182 -7.391,4.792 -7.513,5.465 -7.544,6.148 -7.557,6.667 -7.563,6.878 -7.572,7.58 -7.572,7.58 v 23.101 c 0,0 0.009,0.691 0.015,0.894 0.013,0.524 0.044,1.206 0.165,1.872 0.107,0.614 0.285,1.156 0.544,1.662 0.265,0.525 0.606,0.994 1.015,1.398 0.414,0.414 0.884,0.757 1.402,1.023 0.514,0.26 1.055,0.439 1.654,0.544 0.673,0.12 1.356,0.151 1.875,0.164 l 0.903,0.012 h 147.961 l 0.913,-0.013 c 0.512,-0.012 1.195,-0.043 1.858,-0.162 0.603,-0.106 1.148,-0.285 1.671,-0.548 0.513,-0.263 0.982,-0.606 1.392,-1.016 0.409,-0.406 0.752,-0.878 1.023,-1.404 0.258,-0.511 0.434,-1.053 0.535,-1.649 0.116,-0.631 0.153,-1.279 0.174,-1.887 0.003,-0.283 0.003,-0.588 0.003,-0.89 0.008,-0.375 0.008,-0.732 0.008,-1.092 V 8.66 c 0,-0.363 0,-0.718 -0.008,-1.075 0,-0.325 0,-0.623 -0.004,-0.93 -0.02,-0.589 -0.057,-1.236 -0.171,-1.853 -0.103,-0.613 -0.279,-1.156 -0.54,-1.67 -0.269,-0.52 -0.612,-0.989 -1.015,-1.386 -0.414,-0.418 -0.882,-0.759 -1.4,-1.022 -0.518,-0.264 -1.048,-0.439 -1.668,-0.55 -0.64,-0.116 -1.304,-0.148 -1.869,-0.163 C 148.571,0.004 148.264,0 147.967,0 l -1.084,-0.002 z"
       style="fill:#25d1da;fill-opacity:1;fill-rule:nonzero;stroke:none"
       transform="matrix(1.3333333,0,0,-1.3333333,11.259733,52.166667)"
       clip-path="url(#clipPath4)" />
    <path
       id="path5"
       d="M 0,0 C 0.19,-0.192 0.286,-0.446 0.286,-0.761 0.286,-1.076 0.19,-1.33 0,-1.522 -0.191,-1.714 -0.454,-1.81 -0.79,-1.81 c -0.336,0 -0.599,0.096 -0.79,0.288 -0.191,0.192 -0.286,0.446 -0.286,0.761 0,0.315 0.095,0.569 0.286,0.761 0.191,0.192 0.454,0.289 0.79,0.289 C -0.454,0.289 -0.191,0.192 0,0 m -0.287,-3.385 c 0.232,0 0.347,-0.116 0.347,-0.35 v -8.169 c 0,-0.234 -0.115,-0.351 -0.347,-0.351 h -1.024 c -0.231,0 -0.347,0.117 -0.347,0.351 v 8.169 c 0,0.234 0.116,0.35 0.347,0.35 z M 4.306,-5.353 C 3.878,-5.849 3.664,-6.639 3.664,-7.724 v -0.227 c 0,-1.061 0.217,-1.839 0.651,-2.335 0.434,-0.496 1.119,-0.744 2.057,-0.744 0.486,0 1.006,0.081 1.562,0.245 0.127,0.035 0.214,0.053 0.26,0.053 0.151,0 0.226,-0.117 0.226,-0.35 v -0.472 c 0,-0.152 -0.023,-0.263 -0.07,-0.333 -0.046,-0.07 -0.139,-0.134 -0.277,-0.193 -0.568,-0.244 -1.227,-0.367 -1.979,-0.367 -1.366,0 -2.41,0.394 -3.133,1.181 -0.724,0.787 -1.085,1.927 -1.085,3.42 0,1.481 0.373,2.627 1.119,3.438 0.747,0.81 1.803,1.215 3.168,1.215 0.625,0 1.238,-0.111 1.84,-0.332 C 8.13,-3.572 8.22,-3.63 8.272,-3.7 8.324,-3.77 8.35,-3.887 8.35,-4.05 v -0.472 c 0,-0.234 -0.075,-0.35 -0.225,-0.35 -0.058,0 -0.151,0.017 -0.278,0.053 -0.475,0.139 -0.955,0.21 -1.441,0.21 -0.972,0 -1.672,-0.248 -2.1,-0.744 m -26.51,-6.902 c -0.231,0 -0.347,0.117 -0.347,0.351 v 5.668 c 0,0.583 -0.11,1.014 -0.33,1.294 -0.22,0.28 -0.567,0.42 -1.041,0.42 -0.845,0 -1.695,-0.263 -2.552,-0.787 0.012,-0.082 0.018,-0.169 0.018,-0.263 v -6.332 c 0,-0.234 -0.116,-0.351 -0.347,-0.351 h -1.025 c -0.231,0 -0.347,0.117 -0.347,0.351 v 5.668 c 0,0.583 -0.11,1.014 -0.329,1.294 -0.221,0.28 -0.567,0.42 -1.042,0.42 -0.88,0 -1.724,-0.257 -2.534,-0.77 v -6.612 c 0,-0.234 -0.116,-0.351 -0.347,-0.351 h -1.024 c -0.232,0 -0.347,0.117 -0.347,0.351 v 8.169 c 0,0.234 0.115,0.35 0.347,0.35 h 0.763 c 0.116,0 0.206,-0.023 0.27,-0.07 0.063,-0.046 0.107,-0.134 0.13,-0.262 l 0.104,-0.56 c 1.111,0.77 2.193,1.155 3.246,1.155 1.076,0 1.805,-0.415 2.187,-1.243 1.145,0.828 2.291,1.243 3.437,1.243 0.798,0 1.411,-0.228 1.84,-0.683 0.428,-0.455 0.642,-1.102 0.642,-1.942 v -6.157 c 0,-0.234 -0.116,-0.351 -0.347,-0.351 z m 9.307,8.52 c 0,0.234 0.116,0.35 0.348,0.35 h 1.024 c 0.231,0 0.347,-0.116 0.347,-0.35 v -8.169 c 0,-0.234 -0.116,-0.351 -0.347,-0.351 h -0.746 c -0.116,0 -0.206,0.024 -0.27,0.07 -0.063,0.047 -0.107,0.135 -0.13,0.263 l -0.122,0.612 c -1.075,-0.804 -2.181,-1.207 -3.314,-1.207 -0.822,0 -1.453,0.234 -1.893,0.7 -0.44,0.466 -0.659,1.125 -0.659,1.977 v 6.105 c 0,0.234 0.115,0.35 0.347,0.35 h 1.024 c 0.231,0 0.347,-0.116 0.347,-0.35 v -5.546 c 0,-0.629 0.122,-1.093 0.365,-1.39 0.243,-0.298 0.63,-0.446 1.163,-0.446 0.833,0 1.672,0.28 2.516,0.839 z m 7.685,-7.102 c 0.295,0.221 0.442,0.542 0.442,0.962 0,0.28 -0.09,0.507 -0.269,0.682 -0.179,0.175 -0.506,0.35 -0.981,0.525 l -1.475,0.56 c -1.284,0.478 -1.927,1.295 -1.927,2.449 0,0.758 0.292,1.37 0.877,1.837 0.584,0.466 1.351,0.7 2.3,0.7 0.752,0 1.486,-0.135 2.204,-0.403 0.139,-0.047 0.238,-0.108 0.295,-0.184 0.058,-0.076 0.087,-0.189 0.087,-0.341 v -0.472 c 0,-0.21 -0.075,-0.315 -0.226,-0.315 -0.08,0 -0.214,0.029 -0.399,0.087 -0.613,0.187 -1.238,0.28 -1.874,0.28 -1.111,0 -1.667,-0.379 -1.667,-1.136 0,-0.304 0.093,-0.543 0.278,-0.718 0.185,-0.175 0.549,-0.367 1.094,-0.577 l 1.354,-0.525 c 0.682,-0.268 1.174,-0.586 1.475,-0.954 0.301,-0.367 0.451,-0.842 0.451,-1.425 0,-0.829 -0.307,-1.487 -0.92,-1.977 -0.614,-0.49 -1.429,-0.735 -2.447,-0.735 -0.972,0 -1.846,0.163 -2.621,0.49 -0.139,0.058 -0.235,0.123 -0.287,0.192 -0.051,0.07 -0.078,0.181 -0.078,0.333 v 0.49 c 0,0.21 0.07,0.315 0.209,0.315 0.08,0 0.225,-0.035 0.433,-0.105 0.764,-0.245 1.557,-0.368 2.379,-0.368 0.566,0 0.998,0.111 1.293,0.333 m -51.202,-3.171 c -0.386,0.498 -2.551,0.236 -3.524,0.119 -0.295,-0.036 -0.341,0.224 -0.075,0.412 1.728,1.222 4.558,0.869 4.887,0.46 0.332,-0.413 -0.087,-3.274 -1.706,-4.638 -0.249,-0.21 -0.485,-0.099 -0.375,0.179 0.364,0.917 1.18,2.969 0.793,3.468 m -1.256,-1.445 c -3.018,-2.245 -7.393,-3.439 -11.161,-3.439 -5.281,0 -10.036,1.968 -13.635,5.242 -0.282,0.257 -0.03,0.609 0.31,0.41 3.882,-2.277 8.683,-3.648 13.642,-3.648 3.345,0 7.022,0.699 10.406,2.146 0.51,0.218 0.938,-0.339 0.438,-0.711 m -27.472,7.164 v 0.351 c -1.163,0 -2.392,-0.251 -2.392,-1.631 0,-0.701 0.362,-1.175 0.978,-1.175 0.451,0 0.858,0.281 1.113,0.736 0.316,0.562 0.301,1.088 0.301,1.719 m 1.621,-3.95 c -0.106,-0.097 -0.26,-0.103 -0.38,-0.038 -0.534,0.447 -0.63,0.654 -0.922,1.08 -0.882,-0.906 -1.507,-1.178 -2.65,-1.178 -1.354,0 -2.406,0.842 -2.406,2.525 0,1.315 0.706,2.21 1.714,2.649 0.872,0.385 2.091,0.456 3.023,0.561 v 0.211 c 0,0.385 0.03,0.841 -0.195,1.174 -0.196,0.299 -0.572,0.421 -0.903,0.421 -0.613,0 -1.159,-0.316 -1.292,-0.973 -0.028,-0.146 -0.134,-0.29 -0.279,-0.298 l -1.559,0.171 c -0.131,0.03 -0.278,0.136 -0.24,0.339 0.358,1.905 2.065,2.48 3.596,2.48 0.782,0 1.805,-0.21 2.421,-0.807 0.782,-0.736 0.707,-1.718 0.707,-2.789 v -2.524 c 0,-0.759 0.313,-1.092 0.607,-1.501 0.102,-0.148 0.125,-0.323 -0.005,-0.431 -0.329,-0.277 -0.913,-0.788 -1.233,-1.076 z m 19.455,3.95 v 0.351 c -1.163,0 -2.391,-0.251 -2.391,-1.631 0,-0.701 0.36,-1.175 0.977,-1.175 0.451,0 0.857,0.281 1.113,0.736 0.316,0.562 0.301,1.088 0.301,1.719 m 1.621,-3.95 c -0.107,-0.097 -0.26,-0.103 -0.38,-0.038 -0.534,0.447 -0.63,0.654 -0.922,1.08 -0.882,-0.906 -1.507,-1.178 -2.651,-1.178 -1.353,0 -2.406,0.842 -2.406,2.525 0,1.315 0.707,2.21 1.715,2.649 0.872,0.385 2.09,0.456 3.023,0.561 v 0.211 c 0,0.385 0.03,0.841 -0.196,1.174 -0.196,0.299 -0.571,0.421 -0.902,0.421 -0.614,0 -1.158,-0.316 -1.292,-0.973 -0.028,-0.146 -0.134,-0.29 -0.28,-0.298 l -1.558,0.171 c -0.132,0.03 -0.278,0.136 -0.24,0.339 0.359,1.905 2.066,2.48 3.595,2.48 0.783,0 1.805,-0.21 2.422,-0.807 0.782,-0.736 0.707,-1.718 0.707,-2.789 v -2.524 c 0,-0.759 0.313,-1.092 0.606,-1.501 0.103,-0.148 0.126,-0.323 -0.005,-0.431 -0.328,-0.277 -0.912,-0.788 -1.233,-1.076 z m 19.8,-0.021 h -1.601 c -0.162,0.01 -0.289,0.139 -0.289,0.298 l -0.003,8.32 c 0.014,0.152 0.147,0.271 0.309,0.271 l 1.491,10e-4 c 0.141,-0.008 0.257,-0.104 0.286,-0.233 v -1.272 h 0.03 c 0.451,1.138 1.081,1.68 2.191,1.68 0.721,0 1.426,-0.263 1.876,-0.98 0.42,-0.665 0.42,-1.785 0.42,-2.59 v -5.233 c -0.017,-0.148 -0.149,-0.262 -0.308,-0.262 h -1.611 c -0.149,0.01 -0.269,0.12 -0.287,0.262 v 4.515 c 0,0.91 0.106,2.24 -1.005,2.24 -0.39,0 -0.75,-0.262 -0.93,-0.664 -0.225,-0.508 -0.256,-1.016 -0.256,-1.576 v -4.478 c -0.003,-0.166 -0.141,-0.299 -0.313,-0.299 m -6.756,7.367 c -1.186,0 -1.261,-1.627 -1.261,-2.642 0,-1.015 -0.015,-3.185 1.246,-3.185 1.246,0 1.305,1.75 1.305,2.817 0,0.7 -0.03,1.54 -0.24,2.205 -0.18,0.578 -0.54,0.805 -1.05,0.805 m -0.015,1.698 c 2.386,0 3.676,-2.065 3.676,-4.69 0,-2.538 -1.425,-4.55 -3.676,-4.55 -2.341,0 -3.617,2.065 -3.617,4.637 0,2.59 1.291,4.603 3.617,4.603 M -79.13,-12.26 h -1.608 c -0.153,0.01 -0.275,0.126 -0.288,0.274 l 0.002,8.316 c 0,0.166 0.138,0.299 0.31,0.299 l 1.497,10e-4 c 0.157,-0.008 0.282,-0.128 0.292,-0.28 v -1.085 h 0.031 c 0.39,1.05 1.125,1.54 2.116,1.54 1.005,0 1.635,-0.49 2.085,-1.54 0.391,1.05 1.276,1.54 2.222,1.54 0.675,0 1.41,-0.28 1.861,-0.91 0.51,-0.7 0.405,-1.715 0.405,-2.608 l -0.002,-5.248 c 0,-0.166 -0.138,-0.299 -0.31,-0.299 h -1.605 c -0.162,0.01 -0.289,0.139 -0.289,0.298 v 4.409 c 0,0.35 0.03,1.225 -0.046,1.558 -0.12,0.56 -0.48,0.718 -0.945,0.718 -0.39,0 -0.795,-0.263 -0.96,-0.683 -0.166,-0.42 -0.151,-1.12 -0.151,-1.593 v -4.408 c 0,-0.166 -0.138,-0.299 -0.309,-0.299 h -1.606 c -0.162,0.01 -0.289,0.139 -0.289,0.298 l -0.002,4.409 c 0,0.928 0.15,2.293 -0.99,2.293 -1.156,0 -1.111,-1.33 -1.111,-2.293 v -4.408 c 0,-0.166 -0.139,-0.299 -0.31,-0.299 m 19.276,7.422 v 1.188 c 0.002,0.181 0.136,0.302 0.299,0.301 l 5.285,0.001 c 0.169,0 0.304,-0.124 0.304,-0.3 v -1.019 c -10e-4,-0.171 -0.144,-0.394 -0.397,-0.748 l -2.738,-3.939 c 1.016,0.023 2.091,-0.13 3.014,-0.653 0.209,-0.118 0.264,-0.292 0.281,-0.464 v -1.268 c 0,-0.174 -0.19,-0.377 -0.39,-0.271 -1.626,0.858 -3.784,0.952 -5.583,-0.011 -0.184,-0.099 -0.376,0.101 -0.376,0.276 v 1.205 c 0,0.193 0.004,0.523 0.197,0.817 l 3.171,4.585 -2.761,0.001 c -0.169,0 -0.304,0.121 -0.306,0.299"
       style="fill:#14191a;fill-opacity:1;fill-rule:evenodd;stroke:none"
       transform="matrix(1.3333333,0,0,-1.3333333,164.21133,19.141733)"
       clip-path="url(#clipPath6)" />
    <path
       id="path7"
       d="M 4.3593953,0.00101719 H 0.71486406 V -5.8817953 H 1.5820516 v 5.16796874 h 2.7773437 z m 1.5527344,0 H 5.0800984 V -4.3114828 H 5.9121297 Z M 6.0293172,-5.5771078 c 0,0.1494141 -0.046875,0.2695312 -0.140625,0.3632812 -0.09375,0.09375 -0.2226563,0.140625 -0.3867188,0.140625 -0.1640625,0 -0.2929687,-0.046875 -0.3867187,-0.140625 -0.09375,-0.09375 -0.140625,-0.2138671 -0.140625,-0.3632812 0,-0.1552734 0.046875,-0.28125 0.140625,-0.375 0.09375,-0.09375 0.2226562,-0.140625 0.3867187,-0.140625 0.1640625,0 0.2929688,0.046875 0.3867188,0.140625 0.09375,0.09375 0.140625,0.2197266 0.140625,0.375 z m 3.0322265,3.234375 c 0.3339844,0.1347656 0.5771485,0.2900391 0.7265625,0.46875 0.1464844,0.1728516 0.2226558,0.3984375 0.2226558,0.6796875 0,0.40722655 -0.1523433,0.73242186 -0.4570308,0.97265624 -0.2988281,0.234375 -0.6972656,0.3515625 -1.1953125,0.3515625 -0.5625,0 -1.0488281,-0.11132813 -1.453125,-0.328125 v -0.5859375 c 0.5302735,0.17285156 1.022461,0.2578125 1.4765625,0.2578125 0.272461,0 0.4804688,-0.0527344 0.6210938,-0.1640625 0.1464844,-0.10839844 0.2226562,-0.26367188 0.2226562,-0.46875004 0,-0.1318359 -0.043945,-0.2402343 -0.1289062,-0.328125 C 9.0088094,-1.572225 8.8506062,-1.6571859 8.6162312,-1.7450766 L 7.8896687,-2.0146078 c -0.6269531,-0.234375 -0.9375,-0.6269531 -0.9375,-1.1835938 0,-0.3662109 0.140625,-0.6621093 0.421875,-0.890625 0.2871094,-0.2255859 0.6679688,-0.3398437 1.1367188,-0.3398437 0.4453125,0 0.8671875,0.09082 1.265625,0.2695312 v 0.5859375 C 9.331075,-3.7138266 8.9209187,-3.7841391 8.5459187,-3.7841391 c -0.5390625,0 -0.8085937,0.1845704 -0.8085937,0.5507813 0,0.1494141 0.041016,0.2666016 0.1289062,0.3515625 0.09375,0.087891 0.272461,0.1816406 0.5390625,0.28125 z m 4.2333983,2.23828124 c -0.27539,0.10839844 -0.585937,0.1640625 -0.9375,0.1640625 -0.805664,0 -1.207031,-0.40136719 -1.207031,-1.20703124 v -2.4960938 h -0.785156 v -0.5390625 l 0.808593,-0.1054687 0.128907,-1.2304688 h 0.691406 v 1.2070313 h 1.265625 v 0.6679687 h -1.265625 v 2.4492188 c 0,0.21093749 0.04687,0.36035155 0.140625,0.44531249 0.09375,0.0878906 0.251953,0.12890625 0.480469,0.12890625 0.225586,0 0.451172,-0.0263672 0.679687,-0.0820313 z m 4.227539,-0.09375 c -0.407226,0.21679687 -0.908203,0.328125 -1.5,0.328125 -0.697265,0 -1.224609,-0.19042969 -1.582031,-0.57421875 -0.351563,-0.38964844 -0.527344,-0.96093749 -0.527344,-1.71093749 0,-0.7177734 0.175781,-1.2773438 0.527344,-1.6757813 0.357422,-0.3984375 0.858398,-0.5976562 1.5,-0.5976562 0.539062,0 0.952148,0.1523437 1.242187,0.4570312 0.28711,0.2988282 0.433594,0.7236329 0.433594,1.2773438 0,0.2666016 -0.02344,0.5097656 -0.07031,0.7265625 H 14.7217 c 0.01465,0.4863281 0.134766,0.84375 0.363281,1.07812499 0.234375,0.234375 0.588867,0.3515625 1.066406,0.3515625 0.445313,0 0.902344,-0.0878906 1.371094,-0.26953125 z M 16.842794,-2.5302328 c 0.0059,-0.046875 0.01172,-0.1201172 0.01172,-0.2226563 0,-0.3427734 -0.08203,-0.6005859 -0.246093,-0.7734375 -0.164063,-0.1787109 -0.404297,-0.2695312 -0.714844,-0.2695312 -0.351563,0 -0.629883,0.1054687 -0.832031,0.3164062 -0.196289,0.2109375 -0.310547,0.5273438 -0.339844,0.9492188 z m 5.540039,2.53124999 h -0.84375 V -2.8817953 c 0,-0.2958984 -0.06445,-0.515625 -0.1875,-0.65625 -0.117188,-0.140625 -0.304688,-0.2109375 -0.5625,-0.2109375 -0.445313,0 -0.887696,0.1464844 -1.324219,0.4335937 V 0.00101719 H 18.632833 V -4.3114828 h 0.703125 l 0.08203,0.4804687 c 0.539063,-0.3984375 1.104492,-0.5976562 1.699219,-0.5976562 0.413086,0 0.726562,0.1113281 0.9375,0.328125 0.216797,0.2109375 0.328125,0.5244141 0.328125,0.9375 z m 6.814453,-0.48046875 c -0.360352,0.40722656 -0.864258,0.609375 -1.511719,0.609375 -0.641601,0 -1.145508,-0.19921875 -1.511719,-0.59765625 -0.360351,-0.40429688 -0.539062,-0.96679689 -0.539062,-1.68749999 0,-0.7177734 0.178711,-1.2773438 0.539062,-1.6757813 0.366211,-0.3984375 0.870118,-0.5976562 1.511719,-0.5976562 0.647461,0 1.151367,0.1992187 1.511719,0.5976562 0.366211,0.3984375 0.550781,0.9580079 0.550781,1.6757813 0,0.7207031 -0.18457,1.27734374 -0.550781,1.67578124 z m -1.511719,-0.0703125 c 0.796875,0 1.195313,-0.53320314 1.195313,-1.60546874 0,-1.0605469 -0.398438,-1.59375 -1.195313,-1.59375 -0.796875,0 -1.195312,0.5332031 -1.195312,1.59375 0,1.0722656 0.398437,1.60546874 1.195312,1.60546874 z m 6.84961,0.55078125 h -0.84375 V -2.8817953 c 0,-0.2958984 -0.06445,-0.515625 -0.1875,-0.65625 -0.117188,-0.140625 -0.304688,-0.2109375 -0.5625,-0.2109375 -0.445313,0 -0.887696,0.1464844 -1.324219,0.4335937 V 0.00101719 H 30.785177 V -4.3114828 h 0.703125 l 0.08203,0.4804687 c 0.539062,-0.3984375 1.104492,-0.5976562 1.699219,-0.5976562 0.413085,0 0.726562,0.1113281 0.9375,0.328125 0.216796,0.2109375 0.328125,0.5244141 0.328125,0.9375 z m 0,0"
       style="fill:#14191a;fill-opacity:1;fill-rule:nonzero;stroke:none"
       aria-label="Listen on"
       transform="matrix(1.3333333,0,0,1.3333333,44.371067,17.1588)" />
  </g>
</svg>
