<?xml version="1.0" encoding="UTF-8" standalone="no"?>
<svg
   xmlns:dc="http://purl.org/dc/elements/1.1/"
   xmlns:cc="http://creativecommons.org/ns#"
   xmlns:rdf="http://www.w3.org/1999/02/22-rdf-syntax-ns#"
   xmlns:svg="http://www.w3.org/2000/svg"
   xmlns="http://www.w3.org/2000/svg"
   xmlns:sodipodi="http://sodipodi.sourceforge.net/DTD/sodipodi-0.dtd"
   xmlns:inkscape="http://www.inkscape.org/namespaces/inkscape"
   width="165"
   height="40"
   viewBox="0 0 43.656249 10.583334"
   version="1.1"
   id="svg8"
   inkscape:version="1.0.1 (3bc2e813f5, 2020-09-07)"
   sodipodi:docname="apple-podcasts.svg">
  <defs
     id="defs2">
    <linearGradient
       id="XMLID_2_"
       gradientUnits="userSpaceOnUse"
       x1="12.5815"
       y1="5.0216659e-07"
       x2="12.5815"
       y2="25.163">
      <stop
         offset="0"
         style="stop-color:#F452FF"
         id="stop50" />
      <stop
         offset="1"
         style="stop-color:#832BC1"
         id="stop52" />
    </linearGradient>
  </defs>
  <sodipodi:namedview
     id="base"
     pagecolor="#ffffff"
     bordercolor="#666666"
     borderopacity="1.0"
     inkscape:pageopacity="0.0"
     inkscape:pageshadow="2"
     inkscape:zoom="5.6"
     inkscape:cx="70.055851"
     inkscape:cy="13.491122"
     inkscape:document-units="mm"
     inkscape:current-layer="layer1"
     inkscape:document-rotation="0"
     showgrid="false"
     units="px"
     inkscape:window-width="1920"
     inkscape:window-height="1016"
     inkscape:window-x="0"
     inkscape:window-y="27"
     inkscape:window-maximized="1" />
  <metadata
     id="metadata5">
    <rdf:RDF>
      <cc:Work
         rdf:about="">
        <dc:format>image/svg+xml</dc:format>
        <dc:type
           rdf:resource="http://purl.org/dc/dcmitype/StillImage" />
        <dc:title></dc:title>
      </cc:Work>
    </rdf:RDF>
  </metadata>
  <g
     inkscape:label="Layer 1"
     inkscape:groupmode="layer"
     id="layer1">
    <rect
       style="fill:#ffffff;stroke:#e5e5e5;stroke-width:0.264408;stroke-miterlimit:4;stroke-dasharray:none"
       id="rect833"
       width="43.3699"
       height="10.318926"
       x="0.132204"
       y="0.132204"
       ry="1.6027956" />
    <g
       id="XMLID_417_"
       transform="matrix(0.26458333,0,0,0.26458333,2.1027895,1.7522429)">
      <g
         id="g18">
        <path
           d="M 34.6537,7.5369 H 30.8773 V 1.4822 h 0.9395 v 5.1904 h 2.8369 z"
           id="path2" />
        <path
           d="m 35.7426,1.616 c 0,-0.3145 0.248,-0.5537 0.583,-0.5537 0.3359,0 0.584,0.2393 0.584,0.5537 0,0.3105 -0.248,0.5498 -0.584,0.5498 -0.335,0 -0.583,-0.2393 -0.583,-0.5498 z m 0.1348,1.3516 h 0.8975 v 4.5693 h -0.8975 z"
           id="path4" />
        <path
           d="m 39.8969,2.8797 c 1.0283,0 1.7002,0.4785 1.7881,1.2842 H 40.8207 C 40.7367,3.828 40.4096,3.6141 39.8969,3.6141 c -0.5029,0 -0.8848,0.2393 -0.8848,0.5957 0,0.2725 0.2305,0.4443 0.7256,0.5576 l 0.7598,0.1768 c 0.8682,0.2012 1.2754,0.5742 1.2754,1.2461 0,0.8604 -0.8018,1.4346 -1.8926,1.4346 -1.0869,0 -1.7959,-0.4902 -1.875,-1.3008 h 0.9014 c 0.1133,0.3525 0.4492,0.5713 0.9951,0.5713 0.5625,0 0.9609,-0.252 0.9609,-0.6172 0,-0.2725 -0.2139,-0.4492 -0.6719,-0.5576 L 39.394,5.5359 C 38.5249,5.3298 38.1225,4.9392 38.1225,4.2595 c 0,-0.8095 0.7422,-1.3798 1.7744,-1.3798 z"
           id="path6" />
        <path
           d="M 44.1713,1.8308 V 2.988 h 0.9902 v 0.7598 h -0.9902 v 2.3496 c 0,0.4785 0.1973,0.6885 0.6455,0.6885 0.1387,0 0.2188,-0.0078 0.3447,-0.0205 v 0.751 c -0.1475,0.0254 -0.3154,0.0459 -0.4912,0.0459 -1.0029,0 -1.4014,-0.3525 -1.4014,-1.2334 V 3.7478 H 42.5433 V 2.9881 h 0.7256 V 1.8308 Z"
           id="path8" />
        <path
           d="m 50.1615,6.3035 c -0.2061,0.8184 -0.9355,1.3213 -1.9805,1.3213 -1.3096,0 -2.1113,-0.8975 -2.1113,-2.3574 0,-1.4609 0.8184,-2.3877 2.1064,-2.3877 1.2715,0 2.04,0.8682 2.04,2.3037 v 0.3145 h -3.2275 v 0.0508 c 0.0293,0.8008 0.4951,1.3086 1.2168,1.3086 0.5459,0 0.9189,-0.1973 1.0869,-0.5537 h 0.8692 z M 46.9887,4.8308 h 2.3086 c -0.0215,-0.7178 -0.458,-1.1836 -1.125,-1.1836 -0.667,0 -1.1328,0.4698 -1.1836,1.1836 z"
           id="path10" />
        <path
           d="m 51.4213,2.9676 h 0.8691 v 0.7256 h 0.0674 c 0.2217,-0.5078 0.6748,-0.8135 1.3633,-0.8135 1.0195,0 1.582,0.6123 1.582,1.6992 v 2.958 H 54.4008 V 4.8054 c 0,-0.7344 -0.3184,-1.0996 -0.9863,-1.0996 -0.667,0 -1.0908,0.4453 -1.0908,1.1582 V 7.5369 H 51.4214 V 2.9676 Z"
           id="path12" />
        <path
           d="m 58.9428,5.2498 c 0,-1.4727 0.8223,-2.3701 2.1572,-2.3701 1.3301,0 2.1523,0.8975 2.1523,2.3701 0,1.4814 -0.8184,2.375 -2.1523,2.375 -1.3388,0 -2.1572,-0.8936 -2.1572,-2.375 z m 3.3828,0 c 0,-0.9902 -0.4453,-1.5693 -1.2256,-1.5693 -0.7852,0 -1.2256,0.5791 -1.2256,1.5693 0,0.999 0.4404,1.5742 1.2256,1.5742 0.7803,0 1.2256,-0.5791 1.2256,-1.5742 z"
           id="path14" />
        <path
           d="m 64.4584,2.9676 h 0.8691 v 0.7256 h 0.0674 c 0.2217,-0.5078 0.6748,-0.8135 1.3633,-0.8135 1.0195,0 1.582,0.6123 1.582,1.6992 v 2.958 H 67.4379 V 4.8054 c 0,-0.7344 -0.3184,-1.0996 -0.9863,-1.0996 -0.667,0 -1.0908,0.4453 -1.0908,1.1582 V 7.5369 H 64.4585 V 2.9676 Z"
           id="path16" />
      </g>
    </g>
    <g
       id="XMLID_415_"
       transform="matrix(0.26458333,0,0,0.26458333,2.1027895,1.7522429)">
      <g
         id="g47">
        <path
           d="m 38.1928,20.4031 h -4.7334 l -1.1367,3.3564 h -2.0049 l 4.4834,-12.418 h 2.083 l 4.4834,12.418 h -2.0391 z m -4.2432,-1.5488 h 3.752 L 35.852,13.407 h -0.0518 z"
           id="path21" />
        <path
           d="m 51.0502,19.2332 c 0,2.8135 -1.5059,4.6211 -3.7783,4.6211 -1.29,0 -2.3145,-0.5771 -2.8486,-1.584 h -0.043 v 4.4844 H 42.5219 V 14.7058 h 1.7988 v 1.5059 h 0.0342 c 0.5166,-0.9717 1.6182,-1.6006 2.8828,-1.6006 2.2979,0 3.8125,1.8164 3.8125,4.6221 z m -1.9101,0 c 0,-1.833 -0.9473,-3.0381 -2.3926,-3.0381 -1.4199,0 -2.375,1.2305 -2.375,3.0381 0,1.8242 0.9551,3.0459 2.375,3.0459 1.4453,0 2.3926,-1.1963 2.3926,-3.0459 z"
           id="path23" />
        <path
           d="m 61.0151,19.2332 c 0,2.8135 -1.5059,4.6211 -3.7783,4.6211 -1.29,0 -2.3145,-0.5771 -2.8486,-1.584 h -0.043 v 4.4844 H 52.4868 V 14.7058 h 1.7988 v 1.5059 h 0.0342 c 0.5166,-0.9717 1.6182,-1.6006 2.8828,-1.6006 2.2978,0 3.8125,1.8164 3.8125,4.6221 z m -1.9102,0 c 0,-1.833 -0.9473,-3.0381 -2.3926,-3.0381 -1.4199,0 -2.375,1.2305 -2.375,3.0381 0,1.8242 0.9551,3.0459 2.375,3.0459 1.4453,0 2.3926,-1.1963 2.3926,-3.0459 z"
           id="path25" />
        <path
           d="m 62.5199,11.3416 h 1.8594 v 12.418 h -1.8594 z"
           id="path27" />
        <path
           d="m 74.0551,21.1004 c -0.25,1.6436 -1.8506,2.7715 -3.8984,2.7715 -2.6338,0 -4.2686,-1.7646 -4.2686,-4.5957 0,-2.8398 1.6436,-4.6816 4.1904,-4.6816 2.5049,0 4.0801,1.7207 4.0801,4.4658 v 0.6367 h -6.3945 v 0.1123 c 0,1.5488 0.9727,2.5645 2.4355,2.5645 1.0322,0 1.8418,-0.4902 2.0908,-1.2734 h 1.7647 z m -6.2822,-2.7022 h 4.5264 c -0.043,-1.3857 -0.9297,-2.2979 -2.2207,-2.2979 -1.2823,10e-5 -2.211,0.9298 -2.3057,2.2979 z"
           id="path29" />
        <path
           d="m 84.0571,11.3416 c 2.4092,0 4.0879,1.6611 4.0879,4.0791 0,2.4268 -1.7129,4.0957 -4.1484,4.0957 h -2.668 v 4.2432 h -1.9277 v -12.418 z m -2.7286,6.5576 h 2.2119 c 1.6777,0 2.6328,-0.9043 2.6328,-2.4697 0,-1.5664 -0.9551,-2.4619 -2.624,-2.4619 h -2.2207 z"
           id="path31" />
        <path
           d="m 88.8237,19.2332 c 0,-2.8486 1.6777,-4.6387 4.2939,-4.6387 2.625,0 4.2949,1.79 4.2949,4.6387 0,2.8564 -1.6611,4.6387 -4.2949,4.6387 -2.6328,-10e-5 -4.2939,-1.7823 -4.2939,-4.6387 z m 6.6953,0 c 0,-1.9541 -0.8955,-3.1074 -2.4014,-3.1074 -1.5059,0 -2.4014,1.1621 -2.4014,3.1074 0,1.9619 0.8955,3.1064 2.4014,3.1064 1.5059,0 2.4014,-1.1445 2.4014,-3.1064 z"
           id="path33" />
        <path
           d="m 98.7172,19.2332 c 0,-2.7969 1.54,-4.6221 3.7861,-4.6221 1.2998,0 2.3242,0.6025 2.8398,1.6006 h 0.0352 v -4.8701 h 1.8672 v 12.418 h -1.8076 v -1.54 h -0.0342 c -0.5332,1.0322 -1.5664,1.6348 -2.8828,1.6348 -2.2637,-10e-5 -3.8037,-1.8243 -3.8037,-4.6212 z m 1.9014,0 c 0,1.8584 0.9473,3.0459 2.3926,3.0459 1.4287,0 2.3838,-1.2051 2.3838,-3.0459 0,-1.8252 -0.9551,-3.0381 -2.3838,-3.0381 -1.4454,0 -2.3926,1.1963 -2.3926,3.0381 z"
           id="path35" />
        <path
           d="m 115.1537,17.8211 c -0.1631,-0.9551 -0.9121,-1.6689 -2.1338,-1.6689 -1.4287,0 -2.376,1.1963 -2.376,3.0811 0,1.9277 0.9561,3.0889 2.3926,3.0889 1.1533,0 1.9111,-0.5762 2.1172,-1.626 h 1.79 c -0.2061,1.9014 -1.7295,3.1758 -3.9238,3.1758 -2.582,0 -4.2686,-1.7646 -4.2686,-4.6387 0,-2.8145 1.6865,-4.6387 4.251,-4.6387 2.3232,0 3.7695,1.4629 3.9248,3.2266 h -1.7734 z"
           id="path37" />
        <path
           d="m 118.0824,21.1863 c 0,-1.583 1.2129,-2.5391 3.3643,-2.668 l 2.4785,-0.1377 v -0.6885 c 0,-1.0068 -0.6621,-1.5752 -1.7891,-1.5752 -1.0332,0 -1.7559,0.4912 -1.9023,1.2744 h -1.7383 c 0.0518,-1.6357 1.5742,-2.7969 3.6914,-2.7969 2.1602,0 3.5889,1.1787 3.5889,2.96 v 6.2051 h -1.7812 v -1.4893 h -0.043 c -0.5254,1.0068 -1.6699,1.6445 -2.8574,1.6445 -1.7725,10e-5 -3.0118,-1.1014 -3.0118,-2.7284 z m 5.8428,-0.8174 v -0.6973 l -2.2285,0.1377 c -1.1104,0.0693 -1.7383,0.5508 -1.7383,1.3252 0,0.792 0.6543,1.3086 1.6523,1.3086 1.2999,0 2.3145,-0.8955 2.3145,-2.0742 z"
           id="path39" />
        <path
           d="m 130.9633,14.6033 c 2.0059,0 3.4424,1.1094 3.4854,2.71 h -1.7471 c -0.0771,-0.7998 -0.7568,-1.29 -1.79,-1.29 -1.0068,0 -1.6777,0.4639 -1.6777,1.1699 0,0.542 0.4473,0.9033 1.3857,1.1357 l 1.5234,0.3535 c 1.8242,0.4385 2.5127,1.1094 2.5127,2.4355 0,1.6348 -1.5488,2.7539 -3.7607,2.7539 -2.1348,0 -3.5713,-1.0938 -3.709,-2.7461 h 1.8408 c 0.1299,0.8691 0.8262,1.334 1.9541,1.334 1.1104,0 1.8076,-0.4561 1.8076,-1.1787 0,-0.5596 -0.3447,-0.8604 -1.291,-1.1016 l -1.6182,-0.3955 c -1.6357,-0.3965 -2.4619,-1.2314 -2.4619,-2.4873 0,-1.6005 1.4375,-2.6933 3.5459,-2.6933 z"
           id="path41" />
        <path
           d="m 138.6938,12.5633 v 2.1426 h 1.7217 v 1.4717 h -1.7217 v 4.9912 c 0,0.7754 0.3447,1.1367 1.1016,1.1367 0.1895,0 0.4912,-0.0264 0.6113,-0.043 v 1.4629 c -0.2061,0.0518 -0.6191,0.0859 -1.0322,0.0859 -1.833,0 -2.5479,-0.6885 -2.5479,-2.4443 v -5.1895 h -1.3164 v -1.4717 h 1.3164 v -2.1426 h 1.8672 z"
           id="path43" />
        <path
           d="m 145.4125,14.6033 c 2.0059,0 3.4424,1.1094 3.4854,2.71 h -1.7471 c -0.0771,-0.7998 -0.7568,-1.29 -1.79,-1.29 -1.0068,0 -1.6777,0.4639 -1.6777,1.1699 0,0.542 0.4473,0.9033 1.3857,1.1357 l 1.5234,0.3535 c 1.8242,0.4385 2.5127,1.1094 2.5127,2.4355 0,1.6348 -1.5488,2.7539 -3.7607,2.7539 -2.1348,0 -3.5713,-1.0938 -3.709,-2.7461 h 1.8408 c 0.1299,0.8691 0.8262,1.334 1.9541,1.334 1.1104,0 1.8076,-0.4561 1.8076,-1.1787 0,-0.5596 -0.3447,-0.8604 -1.291,-1.1016 l -1.6182,-0.3955 c -1.6357,-0.3965 -2.4619,-1.2314 -2.4619,-2.4873 0,-1.6005 1.4375,-2.6933 3.5459,-2.6933 z"
           id="path45" />
      </g>
    </g>
    <g
       id="XMLID_1370_"
       transform="matrix(0.26458333,0,0,0.26458333,2.1027895,1.7522429)">
      <linearGradient
         id="linearGradient963"
         gradientUnits="userSpaceOnUse"
         x1="12.5815"
         y1="5.0216659e-07"
         x2="12.5815"
         y2="25.163">
        <stop
           offset="0"
           style="stop-color:#F452FF"
           id="stop959" />
        <stop
           offset="1"
           style="stop-color:#832BC1"
           id="stop961" />
      </linearGradient>
      <path
         id="XMLID_1400_"
         fill-rule="evenodd"
         clip-rule="evenodd"
         fill="url(#XMLID_2_)"
         d="m 24.6653,21.8098 c -0.2446,0.6213 -0.809,1.4961 -1.6094,2.1124 -0.4621,0.3559 -1.0138,0.6961 -1.7716,0.9206 -0.8078,0.2394 -1.8028,0.3203 -3.0412,0.3203 H 6.9198 c -1.2383,0 -2.2333,-0.0809 -3.0412,-0.3203 C 3.1208,24.6183 2.5692,24.2781 2.107,23.9222 1.3067,23.3059 0.7422,22.4312 0.4976,21.8098 0.005,20.558 0,19.1376 0,18.2432 v 0 -11.3234 0 C 0,6.0254 0.005,4.605 0.4977,3.3532 0.7423,2.7319 1.3067,1.8571 2.1071,1.2409 2.5692,0.885 3.1209,0.5448 3.8786,0.3203 4.6865,0.0809 5.6815,0 6.9198,0 v 0 h 11.3234 v 0 c 1.2383,0 2.2333,0.0809 3.0412,0.3203 0.7578,0.2245 1.3094,0.5648 1.7716,0.9206 0.8003,0.6163 1.3648,1.491 1.6094,2.1123 0.4926,1.2518 0.4976,2.6722 0.4976,3.5666 v 11.3233 c 0,0.8945 -0.005,2.3149 -0.4977,3.5667 z"
         style="fill:url(#XMLID_2_)" />
      <path
         id="XMLID_1398_"
         fill-rule="evenodd"
         clip-rule="evenodd"
         fill="none"
         d="m 24.6653,21.8098 c -0.2446,0.6213 -0.809,1.4961 -1.6094,2.1124 -0.4621,0.3559 -1.0138,0.6961 -1.7716,0.9206 -0.8078,0.2394 -1.8028,0.3203 -3.0412,0.3203 H 6.9198 c -1.2383,0 -2.2333,-0.0809 -3.0412,-0.3203 C 3.1208,24.6183 2.5692,24.2781 2.107,23.9222 1.3067,23.3059 0.7422,22.4312 0.4976,21.8098 0.005,20.558 0,19.1376 0,18.2432 v 0 -11.3234 0 C 0,6.0254 0.005,4.605 0.4977,3.3532 0.7423,2.7319 1.3067,1.8571 2.1071,1.2409 2.5692,0.885 3.1209,0.5448 3.8786,0.3203 4.6865,0.0809 5.6815,0 6.9198,0 v 0 h 11.3234 v 0 c 1.2383,0 2.2333,0.0809 3.0412,0.3203 0.7578,0.2245 1.3094,0.5648 1.7716,0.9206 0.8003,0.6163 1.3648,1.491 1.6094,2.1123 0.4926,1.2518 0.4976,2.6722 0.4976,3.5666 v 11.3233 c 0,0.8945 -0.005,2.3149 -0.4977,3.5667 z" />
      <g
         id="XMLID_1386_">
        <g
           id="g59">
          <path
             fill="#ffffff"
             d="m 14.4064,14.4632 c -0.3776,-0.3983 -1.0407,-0.6537 -1.8237,-0.6537 -0.783,0 -1.4462,0.2554 -1.8237,0.6537 -0.1971,0.2079 -0.3013,0.421 -0.3341,0.7246 -0.0636,0.588 -0.0279,1.0941 0.041,1.9035 0.0656,0.7712 0.1902,1.7996 0.3528,2.847 0.1157,0.7454 0.2098,1.1477 0.2954,1.4359 0.1387,0.4669 0.6575,0.8752 1.4686,0.8752 0.8111,0 1.3298,-0.4084 1.4686,-0.8752 0.0856,-0.2881 0.1796,-0.6904 0.2953,-1.4359 0.1626,-1.0474 0.2872,-2.0757 0.3528,-2.847 0.0689,-0.8094 0.1046,-1.3156 0.041,-1.9035 -0.0328,-0.3036 -0.137,-0.5166 -0.334,-0.7246 z m -3.8811,-3.5473 c 0,1.1374 0.922,2.0594 2.0593,2.0594 1.1374,0 2.0594,-0.922 2.0594,-2.0594 0,-1.1373 -0.922,-2.0594 -2.0594,-2.0594 -1.1373,0 -2.0593,0.9221 -2.0593,2.0594 z m 2.0338,-8.1271 c -4.8163,0.0137 -8.7628,3.921 -8.8224,8.737 -0.0483,3.9013 2.442,7.2385 5.9195,8.4617 C 9.7406,20.0172 9.8263,19.9472 9.813,19.8586 9.7675,19.5558 9.7244,19.2513 9.6849,18.952 9.6709,18.8462 9.6035,18.755 9.5058,18.7123 6.7572,17.5115 4.8379,14.7548 4.8687,11.5618 4.9091,7.3713 8.3309,3.9551 12.5213,3.9212 c 4.2839,-0.0346 7.78,3.4402 7.78,7.7162 0,3.1611 -1.9109,5.8839 -4.6381,7.0751 -0.0977,0.0427 -0.1647,0.1342 -0.1786,0.2398 -0.0395,0.2992 -0.0825,0.6035 -0.128,0.9062 -0.0133,0.0885 0.0723,0.1586 0.1567,0.1289 3.4443,-1.2115 5.9202,-4.4968 5.9202,-8.35 C 21.4334,6.7498 17.45,2.775 12.5591,2.7888 Z m -0.1599,4.0597 c 2.7303,-0.1058 4.9852,2.0847 4.9852,4.7919 0,1.3768 -0.5834,2.6198 -1.5157,3.4952 -0.079,0.0742 -0.1216,0.1796 -0.1155,0.2878 0.0186,0.3294 0.0118,0.6493 -0.0101,1.0107 -0.0059,0.0963 0.1021,0.1578 0.1818,0.1034 1.5634,-1.0684 2.5917,-2.8648 2.5917,-4.8972 0,-3.3464 -2.7874,-6.0541 -6.1623,-5.9233 C 9.2179,5.8385 6.7016,8.4245 6.6614,11.563 6.635,13.6273 7.6696,15.4559 9.2531,16.5378 9.3326,16.5921 9.4403,16.5304 9.4344,16.4343 9.4124,16.0727 9.4057,15.7527 9.4242,15.4234 9.4303,15.3153 9.388,15.21 9.309,15.1358 8.3476,14.2332 7.7572,12.9396 7.7948,11.5117 7.861,8.9986 9.8871,6.9458 12.3992,6.8485 Z"
             id="path57" />
        </g>
      </g>
    </g>
  </g>
</svg>
