<?xml version="1.0" encoding="UTF-8" standalone="no"?>
<svg
   xmlns:dc="http://purl.org/dc/elements/1.1/"
   xmlns:cc="http://creativecommons.org/ns#"
   xmlns:rdf="http://www.w3.org/1999/02/22-rdf-syntax-ns#"
   xmlns:svg="http://www.w3.org/2000/svg"
   xmlns="http://www.w3.org/2000/svg"
   xmlns:sodipodi="http://sodipodi.sourceforge.net/DTD/sodipodi-0.dtd"
   xmlns:inkscape="http://www.inkscape.org/namespaces/inkscape"
   width="165"
   height="40"
   viewBox="0 0 43.656249 10.583334"
   version="1.1"
   id="svg8"
   inkscape:version="1.0.1 (3bc2e813f5, 2020-09-07)"
   sodipodi:docname="google-podcasts.svg">
  <defs
     id="defs2">
    <linearGradient
       id="XMLID_2_"
       gradientUnits="userSpaceOnUse"
       x1="12.5815"
       y1="5.0216659e-07"
       x2="12.5815"
       y2="25.163">
      <stop
         offset="0"
         style="stop-color:#F452FF"
         id="stop50" />
      <stop
         offset="1"
         style="stop-color:#832BC1"
         id="stop52" />
    </linearGradient>
  </defs>
  <sodipodi:namedview
     id="base"
     pagecolor="#ffffff"
     bordercolor="#666666"
     borderopacity="1.0"
     inkscape:pageopacity="0.0"
     inkscape:pageshadow="2"
     inkscape:zoom="5.3650794"
     inkscape:cx="70.055851"
     inkscape:cy="13.491122"
     inkscape:document-units="mm"
     inkscape:current-layer="layer1"
     inkscape:document-rotation="0"
     showgrid="false"
     units="px"
     inkscape:window-width="1920"
     inkscape:window-height="1016"
     inkscape:window-x="0"
     inkscape:window-y="27"
     inkscape:window-maximized="1" />
  <metadata
     id="metadata5">
    <rdf:RDF>
      <cc:Work
         rdf:about="">
        <dc:format>image/svg+xml</dc:format>
        <dc:type
           rdf:resource="http://purl.org/dc/dcmitype/StillImage" />
        <dc:title />
      </cc:Work>
    </rdf:RDF>
  </metadata>
  <g
     inkscape:label="Layer 1"
     inkscape:groupmode="layer"
     id="layer1">
    <rect
       style="fill:#ffffff;stroke:#e5e5e5;stroke-width:0.264408;stroke-miterlimit:4;stroke-dasharray:none"
       id="rect833"
       width="43.369904"
       height="10.318926"
       x="0.13220391"
       y="0.13220374"
       ry="1.6027957" />
    <g
       id="Podcast_icon_final"
       style="fill:none;fill-rule:evenodd;stroke:none;stroke-width:1"
       transform="matrix(0.2709599,0,0,0.2709599,3.2798349,1.5090662)">
      <g
         id="logo_podcasts_192px">
        <rect
           id="Rectangle-path"
           x="0"
           y="0"
           width="27"
           height="27" />
        <path
           d="m 2.671875,11.109375 c -0.855,0 -1.546875,0.691875 -1.546875,1.546875 v 1.6875 c 0,0.855 0.691875,1.546875 1.546875,1.546875 0.855,0 1.546875,-0.691875 1.546875,-1.546875 v -1.6875 c 0,-0.855 -0.691875,-1.546875 -1.546875,-1.546875 z"
           id="Shape"
           fill="#0066d9"
           fill-rule="nonzero" />
        <path
           d="m 24.328125,11.109375 c -0.855,0 -1.546875,0.691875 -1.546875,1.546875 v 1.6875 c 0,0.855 0.691875,1.546875 1.546875,1.546875 0.855,0 1.546875,-0.691875 1.546875,-1.546875 v -1.6875 c 0,-0.855 -0.691875,-1.546875 -1.546875,-1.546875 z"
           id="path10"
           fill="#4285f4"
           fill-rule="nonzero" />
        <path
           d="m 8.015625,16.171875 c -0.855,0 -1.546875,0.691875 -1.546875,1.546875 v 1.6875 c 0,0.855 0.691875,1.546875 1.546875,1.546875 0.855,0 1.546875,-0.691875 1.546875,-1.546875 v -1.6875 c 0,-0.855 -0.691875,-1.546875 -1.546875,-1.546875 z"
           id="path12"
           fill="#ea4335"
           fill-rule="nonzero" />
        <path
           d="m 8.015625,6.046875 c -0.855,0 -1.546875,0.691875 -1.546875,1.546875 v 5.519531 H 6.47016 C 6.489848,13.951406 7.173285,14.625 8.0156288,14.625 c 0.8423438,0 1.5257813,-0.673594 1.5454688,-1.511719 H 9.5625 V 7.59375 c 0,-0.855 -0.691875,-1.546875 -1.546875,-1.546875 z"
           id="path14"
           fill="#ea4335"
           fill-rule="nonzero" />
        <path
           d="m 18.984375,6.046875 c -0.855,0 -1.546875,0.691875 -1.546875,1.546875 v 1.6875 c 0,0.855 0.691875,1.546875 1.546875,1.546875 0.855,0 1.546875,-0.691875 1.546875,-1.546875 v -1.6875 c 0,-0.855 -0.691875,-1.546875 -1.546875,-1.546875 z"
           id="path16"
           fill="#34a853"
           fill-rule="nonzero" />
        <path
           d="m 13.5,1.125 c -0.855,0 -1.546875,0.691875 -1.546875,1.546875 v 1.6875 c 0,0.855 0.691875,1.546875 1.546875,1.546875 0.855,0 1.546875,-0.691875 1.546875,-1.546875 v -1.6875 C 15.046875,1.816875 14.355,1.125 13.5,1.125 Z"
           id="path18"
           fill="#fab908"
           fill-rule="nonzero" />
        <path
           d="m 13.5,21.09375 c -0.855,0 -1.546875,0.691875 -1.546875,1.546875 v 1.6875 c 0,0.855 0.691875,1.546875 1.546875,1.546875 0.855,0 1.546875,-0.691875 1.546875,-1.546875 v -1.6875 c 0,-0.855 -0.691875,-1.546875 -1.546875,-1.546875 z"
           id="path20"
           fill="#fab908"
           fill-rule="nonzero" />
        <path
           d="m 18.984375,12.375 c -0.855,0 -1.546875,0.691875 -1.546875,1.546875 v 5.484375 c 0,0.855 0.691875,1.546875 1.546875,1.546875 0.855,0 1.546875,-0.691875 1.546875,-1.546875 v -5.484375 c 0,-0.855 -0.691875,-1.546875 -1.546875,-1.546875 z"
           id="path22"
           fill="#34a853"
           fill-rule="nonzero" />
        <path
           d="M 15.046875,9 C 15.046875,8.145 14.355,7.453125 13.5,7.453125 12.645,7.453125 11.953125,8.145 11.953125,9 V 9 12.750469 14.250937 18 18 c 0,0.855 0.691875,1.546875 1.546875,1.546875 0.855,0 1.546875,-0.691875 1.546875,-1.546875 v 0 -3.750469 -1.499062 z"
           id="path24"
           fill="#fab908"
           fill-rule="nonzero" />
      </g>
    </g>
    <g
       id="Group"
       transform="matrix(0.2709599,0,0,0.2709599,12.221511,3.9477055)"
       style="fill:none;fill-rule:evenodd;stroke:none;stroke-width:1">
      <polygon
         id="polygon28"
         points="101.92,3.24 101.92,18.92 0,18.92 0,3.24 " />
      <path
         d="M 50.344,14.06 V 9.972 h 2.198 c 0.56,0 1.078,-0.126 1.554,-0.378 0.476,-0.252 0.856333,-0.6043333 1.141,-1.057 0.284667,-0.4526667 0.427,-0.9636667 0.427,-1.533 0,-0.5693333 -0.142333,-1.0803333 -0.427,-1.533 C 54.952333,5.0183333 54.572,4.666 54.096,4.414 53.62,4.162 53.102,4.036 52.542,4.036 v 0 H 49.168 V 14.06 Z M 52.57,8.838 H 50.344 V 5.17 h 2.226 c 0.373333,0 0.702333,0.088667 0.987,0.266 0.284667,0.1773333 0.506333,0.406 0.665,0.686 0.158667,0.28 0.238,0.574 0.238,0.882 0,0.308 -0.07933,0.602 -0.238,0.882 -0.158667,0.28 -0.380333,0.5086667 -0.665,0.686 -0.284667,0.1773333 -0.613667,0.266 -0.987,0.266 z m 7.028,5.446 c 0.7,0 1.33,-0.168 1.89,-0.504 0.56,-0.336 0.996333,-0.793333 1.309,-1.372 0.312667,-0.578667 0.469,-1.218 0.469,-1.918 0,-0.7 -0.156333,-1.3393333 -0.469,-1.918 C 62.484333,7.9933333 62.048,7.536 61.488,7.2 c -0.56,-0.336 -1.19,-0.504 -1.89,-0.504 -0.7,0 -1.33,0.168 -1.89,0.504 -0.56,0.336 -0.996333,0.7933333 -1.309,1.372 -0.312667,0.5786667 -0.469,1.218 -0.469,1.918 0,0.7 0.156333,1.339333 0.469,1.918 0.312667,0.578667 0.749,1.036 1.309,1.372 0.56,0.336 1.19,0.504 1.89,0.504 z m 0,-1.078 c -0.438667,0 -0.849333,-0.109667 -1.232,-0.329 -0.382667,-0.219333 -0.688333,-0.534333 -0.917,-0.945 -0.228667,-0.410667 -0.343,-0.891333 -0.343,-1.442 0,-0.5506667 0.114333,-1.0313333 0.343,-1.442 0.228667,-0.4106667 0.534333,-0.7256667 0.917,-0.945 0.382667,-0.2193333 0.793333,-0.329 1.232,-0.329 0.438667,0 0.847,0.1096667 1.225,0.329 0.378,0.2193333 0.681333,0.5343333 0.91,0.945 0.228667,0.4106667 0.343,0.8913333 0.343,1.442 0,0.550667 -0.114333,1.031333 -0.343,1.442 -0.228667,0.410667 -0.532,0.725667 -0.91,0.945 -0.378,0.219333 -0.786333,0.329 -1.225,0.329 z m 7.882,1.078 c 0.550667,0 1.040667,-0.123667 1.47,-0.371 0.429333,-0.247333 0.756,-0.548333 0.98,-0.903 v 0 h 0.056 v 1.05 H 71.12 V 4.036 H 69.93 V 6.99 l 0.056,0.994 H 69.93 C 69.706,7.62 69.379333,7.3143333 68.95,7.067 68.520667,6.8196667 68.030667,6.696 67.48,6.696 c -0.634667,0 -1.211,0.1633333 -1.729,0.49 -0.518,0.3266667 -0.926333,0.7793333 -1.225,1.358 -0.298667,0.5786667 -0.448,1.2273333 -0.448,1.946 0,0.728 0.149333,1.379 0.448,1.953 0.298667,0.574 0.707,1.024333 1.225,1.351 0.518,0.326667 1.094333,0.49 1.729,0.49 z m 0.14,-1.078 c -0.410667,0 -0.798,-0.112 -1.162,-0.336 -0.364,-0.224 -0.655667,-0.543667 -0.875,-0.959 -0.219333,-0.415333 -0.329,-0.889 -0.329,-1.421 0,-0.532 0.109667,-1.0056667 0.329,-1.421 0.219333,-0.4153333 0.511,-0.735 0.875,-0.959 0.364,-0.224 0.751333,-0.336 1.162,-0.336 0.42,0 0.809667,0.112 1.169,0.336 0.359333,0.224 0.648667,0.5413333 0.868,0.952 0.219333,0.4106667 0.329,0.8866667 0.329,1.428 0,0.541333 -0.109667,1.017333 -0.329,1.428 -0.219333,0.410667 -0.508667,0.728 -0.868,0.952 -0.359333,0.224 -0.749,0.336 -1.169,0.336 z m 8.232,1.078 c 0.765333,0 1.416333,-0.182 1.953,-0.546 0.536667,-0.364 0.926333,-0.84 1.169,-1.428 v 0 L 77.91,11.862 c -0.177333,0.429333 -0.448,0.760667 -0.812,0.994 -0.364,0.233333 -0.798,0.35 -1.302,0.35 -0.42,0 -0.812,-0.114333 -1.176,-0.343 -0.364,-0.228667 -0.655667,-0.548333 -0.875,-0.959 -0.219333,-0.410667 -0.329,-0.882 -0.329,-1.414 0,-0.532 0.109667,-1.0033333 0.329,-1.414 0.219333,-0.4106667 0.511,-0.7303333 0.875,-0.959 0.364,-0.2286667 0.756,-0.343 1.176,-0.343 0.494667,0 0.917,0.1143333 1.267,0.343 0.35,0.2286667 0.613667,0.5623333 0.791,1.001 v 0 L 78.932,8.67 C 78.708,8.0726667 78.332333,7.5943333 77.805,7.235 77.277667,6.8756667 76.626667,6.696 75.852,6.696 c -0.690667,0 -1.311333,0.1633333 -1.862,0.49 -0.550667,0.3266667 -0.98,0.7793333 -1.288,1.358 -0.308,0.5786667 -0.462,1.2273333 -0.462,1.946 0,0.718667 0.154,1.365 0.462,1.939 0.308,0.574 0.737333,1.026667 1.288,1.358 0.550667,0.331333 1.171333,0.497 1.862,0.497 z m 6.426,0 c 0.513333,0 0.975333,-0.121333 1.386,-0.364 0.410667,-0.242667 0.718667,-0.536667 0.924,-0.882 v 0 h 0.056 v 1.022 h 1.134 V 9.538 c 0,-0.8773333 -0.277667,-1.5703333 -0.833,-2.079 -0.555333,-0.5086667 -1.318333,-0.763 -2.289,-0.763 -0.597333,0 -1.141,0.1213333 -1.631,0.364 -0.49,0.2426667 -0.875,0.5786667 -1.155,1.008 v 0 L 80.766,8.74 C 80.962,8.432 81.228,8.1916667 81.564,8.019 81.9,7.8463333 82.268667,7.76 82.67,7.76 c 0.569333,0 1.040667,0.161 1.414,0.483 0.373333,0.322 0.56,0.749 0.56,1.281 v 0 0.434 C 84.448,9.8366667 84.165667,9.7293333 83.797,9.636 83.428333,9.5426667 83.029333,9.496 82.6,9.496 c -0.868,0 -1.586667,0.2123333 -2.156,0.637 -0.569333,0.424667 -0.854,1.015 -0.854,1.771 0,0.457333 0.112,0.865667 0.336,1.225 0.224,0.359333 0.541333,0.641667 0.952,0.847 0.410667,0.205333 0.877333,0.308 1.4,0.308 z m 0.112,-1.05 c -0.457333,0 -0.835333,-0.121333 -1.134,-0.364 -0.298667,-0.242667 -0.448,-0.56 -0.448,-0.952 0,-0.429333 0.165667,-0.779333 0.497,-1.05 0.331333,-0.270667 0.823667,-0.406 1.477,-0.406 0.364,0 0.709333,0.04667 1.036,0.14 0.326667,0.09333 0.602,0.214667 0.826,0.364 0,0.410667 -0.102667,0.788667 -0.308,1.134 -0.205333,0.345333 -0.480667,0.620667 -0.826,0.826 -0.345333,0.205333 -0.718667,0.308 -1.12,0.308 z m 7.266,1.05 c 0.522667,0 0.998667,-0.08867 1.428,-0.266 0.429333,-0.177333 0.77,-0.431667 1.022,-0.763 0.252,-0.331333 0.378,-0.716333 0.378,-1.155 0,-0.504 -0.177333,-0.931 -0.532,-1.281 -0.354667,-0.35 -0.882,-0.613667 -1.582,-0.791 v 0 L 89.334,9.762 C 88.923333,9.6593333 88.615333,9.5263333 88.41,9.363 88.204667,9.1996667 88.102,8.9873333 88.102,8.726 c 0,-0.28 0.147,-0.511 0.441,-0.693 0.294,-0.182 0.637,-0.273 1.029,-0.273 0.812,0 1.376667,0.3173333 1.694,0.952 v 0 L 92.302,8.236 C 92.096667,7.7506667 91.749,7.3726667 91.259,7.102 90.769,6.8313333 90.211333,6.696 89.586,6.696 c -0.476,0 -0.919333,0.084 -1.33,0.252 -0.410667,0.168 -0.739667,0.4083333 -0.987,0.721 -0.247333,0.3126667 -0.371,0.6743333 -0.371,1.085 0,0.532 0.182,0.966 0.546,1.302 0.364,0.336 0.830667,0.574 1.4,0.714 v 0 l 0.868,0.224 c 0.541333,0.130667 0.938,0.287 1.19,0.469 0.252,0.182 0.378,0.422333 0.378,0.721 0,0.336 -0.158667,0.595 -0.476,0.777 -0.317333,0.182 -0.7,0.273 -1.148,0.273 -0.42,0 -0.805,-0.116667 -1.155,-0.35 -0.35,-0.233333 -0.613667,-0.564667 -0.791,-0.994 v 0 l -1.064,0.476 c 0.214667,0.56 0.578667,1.019667 1.092,1.379 0.513333,0.359333 1.152667,0.539 1.918,0.539 z m 6.608,-0.112 c 0.224,0 0.408333,-0.014 0.553,-0.042 0.144667,-0.028 0.287,-0.07467 0.427,-0.14 v 0 -1.162 c -0.252,0.158667 -0.513333,0.238 -0.784,0.238 -0.336,0 -0.592667,-0.102667 -0.77,-0.308 -0.149333,-0.186667 -0.224,-0.476 -0.224,-0.868 v 0 -3.892 h 1.736 V 6.92 H 95.466 V 4.904 h -1.19 V 6.92 H 93.03 v 1.078 h 1.246 v 4.186 c 0,0.336 0.04667,0.620667 0.14,0.854 0.09333,0.233333 0.233333,0.438667 0.42,0.616 0.168,0.158667 0.375667,0.284667 0.623,0.378 0.247333,0.09333 0.515667,0.14 0.805,0.14 z m 4.816,0.112 c 0.52267,0 0.99867,-0.08867 1.428,-0.266 0.42933,-0.177333 0.77,-0.431667 1.022,-0.763 0.252,-0.331333 0.378,-0.716333 0.378,-1.155 0,-0.504 -0.17733,-0.931 -0.532,-1.281 -0.35467,-0.35 -0.882,-0.613667 -1.582,-0.791 v 0 L 100.758,9.762 C 100.34733,9.6593333 100.03933,9.5263333 99.834,9.363 99.628667,9.1996667 99.526,8.9873333 99.526,8.726 c 0,-0.28 0.147,-0.511 0.441,-0.693 0.294,-0.182 0.637,-0.273 1.029,-0.273 0.812,0 1.37667,0.3173333 1.694,0.952 v 0 l 1.036,-0.476 c -0.20533,-0.4853333 -0.553,-0.8633333 -1.043,-1.134 -0.49,-0.2706667 -1.04767,-0.406 -1.673,-0.406 -0.476,0 -0.91933,0.084 -1.33,0.252 -0.410667,0.168 -0.739667,0.4083333 -0.987,0.721 -0.247333,0.3126667 -0.371,0.6743333 -0.371,1.085 0,0.532 0.182,0.966 0.546,1.302 0.364,0.336 0.830667,0.574 1.4,0.714 v 0 l 0.868,0.224 c 0.54133,0.130667 0.938,0.287 1.19,0.469 0.252,0.182 0.378,0.422333 0.378,0.721 0,0.336 -0.15867,0.595 -0.476,0.777 -0.31733,0.182 -0.7,0.273 -1.148,0.273 -0.42,0 -0.805,-0.116667 -1.155,-0.35 -0.35,-0.233333 -0.613667,-0.564667 -0.791,-0.994 v 0 l -1.064,0.476 c 0.214667,0.56 0.578667,1.019667 1.092,1.379 0.513333,0.359333 1.15267,0.539 1.918,0.539 z"
         id="Podcasts"
         fill="#3c4043"
         fill-rule="nonzero" />
      <path
         d="m 31.621333,6.8133333 c 0.882,0 1.578889,0.392 1.938223,0.8275556 H 33.614 V 7.042 h 1.546222 v 6.609556 c 0,2.722222 -1.600666,3.832888 -3.495333,3.832888 -1.785778,0 -2.863778,-1.197777 -3.266667,-2.177777 l 1.404667,-0.588 c 0.250444,0.598889 0.860222,1.306666 1.851111,1.306666 1.208667,0 1.96,-0.751333 1.96,-2.156 v -0.533555 h -0.05444 c -0.359334,0.446444 -1.056223,0.838444 -1.938223,0.838444 -1.840222,0 -3.528,-1.611555 -3.528,-3.669555 0,-2.0797781 1.687778,-3.6913337 3.528,-3.6913337 z M 15.669111,6.9222222 c 2.036222,0 3.691333,1.5462222 3.691333,3.6804448 0,2.123333 -1.655111,3.680444 -3.691333,3.680444 -2.036222,0 -3.691333,-1.557111 -3.691333,-3.680444 0,-2.1342226 1.655111,-3.6804448 3.691333,-3.6804448 z m 8.057778,0 c 2.036222,0 3.691333,1.5462222 3.691333,3.6804448 0,2.123333 -1.655111,3.680444 -3.691333,3.680444 -2.036222,0 -3.691333,-1.557111 -3.691333,-3.680444 0,-2.1342226 1.655111,-3.6804448 3.691333,-3.6804448 z m 18.402222,0 c 1.905556,0 2.842,1.5135556 3.146889,2.3411111 l 0.163333,0.4137778 -4.921777,2.0362219 c 0.381111,0.729556 0.958222,1.110667 1.785777,1.110667 0.827556,0 1.393778,-0.402889 1.818445,-1.012667 L 45.374,12.649778 c -0.413778,0.598889 -1.382889,1.633333 -3.070667,1.633333 -2.090666,0 -3.647777,-1.622444 -3.647777,-3.680444 0,-2.188667 1.578888,-3.6804448 3.473555,-3.6804448 z M 6.1304444,2.7844444 c 1.7422223,0 2.9835556,0.686 3.9199996,1.5788889 L 8.9397778,5.4631111 c -0.6642222,-0.6315555 -1.568,-1.1215555 -2.8093334,-1.1215555 -2.2975555,0 -4.0942222,1.8511111 -4.0942222,4.1486666 0,2.2975558 1.7966667,4.1486668 4.0942222,4.1486668 1.4917778,0 2.3411112,-0.598889 2.8855556,-1.143333 0.4464444,-0.446445 0.7404444,-1.088889 0.8493333,-1.9600004 H 6.1304444 V 7.9784444 h 5.2593336 c 0.05444,0.2831112 0.08711,0.6097778 0.08711,0.98 0,1.1759996 -0.315778,2.6242226 -1.350222,3.6477776 -1.012667,1.045334 -2.2975559,1.600667 -3.9962226,1.600667 -3.1577777,0 -5.80377773,-2.558889 -5.80377773,-5.7057779 0,-3.1577778 2.64600003,-5.7166667 5.80377773,-5.7166667 z M 37.871556,3.22 V 14.032667 H 36.26 V 3.22 Z M 15.669111,8.3595556 c -1.121555,0 -2.079778,0.9037777 -2.079778,2.2322224 0,1.317555 0.969111,2.232222 2.079778,2.232222 1.110667,0 2.079778,-0.914667 2.079778,-2.232222 0,-1.3284447 -0.969111,-2.2322224 -2.079778,-2.2322224 z m 8.057778,0 c -1.121556,0 -2.079778,0.9037777 -2.079778,2.2322224 0,1.317555 0.969111,2.232222 2.079778,2.232222 1.110667,0 2.079778,-0.914667 2.079778,-2.232222 0,-1.3284447 -0.958223,-2.2322224 -2.079778,-2.2322224 z m 8.036,-0.098 c -1.110667,0 -2.047111,0.9473333 -2.047111,2.2431114 0,1.284889 0.936444,2.221333 2.047111,2.221333 1.099778,0 1.970889,-0.925556 1.96,-2.221333 0,-1.2957781 -0.860222,-2.2431114 -1.96,-2.2431114 z m 10.420667,0.076222 c -0.827556,0 -1.970889,0.7295555 -1.927334,2.1451114 l 3.288445,-1.3611114 c -0.174223,-0.4682222 -0.718667,-0.784 -1.361111,-0.784 z"
         id="Combined-Shape"
         fill="#3c4043"
         fill-rule="nonzero" />
    </g>
    <path
       d="M 13.624491,3.7309374 V 3.5215575 H 12.704287 V 1.7891711 h -0.257391 v 1.9417663 z m 0.468371,-1.6857093 c 0.04801,0 0.08447,-0.013337 0.109358,-0.040008 0.02489,-0.026673 0.03734,-0.060014 0.03734,-0.100023 0,-0.040009 -0.01245,-0.073795 -0.03734,-0.1013562 -0.02489,-0.027562 -0.06134,-0.041342 -0.109358,-0.041342 -0.04801,0 -0.08423,0.01378 -0.108691,0.041342 -0.02445,0.027562 -0.03667,0.061347 -0.03667,0.1013562 0,0.040009 0.01222,0.073349 0.03667,0.100023 0.02445,0.026673 0.06067,0.040008 0.108691,0.040008 z m 0.121361,1.6857093 V 2.287949 h -0.246722 v 1.4429884 z m 0.993821,0.026674 c 0.164481,0 0.29829,-0.038897 0.401423,-0.1166929 0.103134,-0.077796 0.154702,-0.1811513 0.154702,-0.3100692 0,-0.07735 -0.01846,-0.1429205 -0.05535,-0.1967103 -0.0369,-0.05379 -0.09357,-0.0998 -0.170037,-0.1380308 -0.07646,-0.03823 -0.176263,-0.071127 -0.299401,-0.098688 -0.123139,-0.027562 -0.208269,-0.056456 -0.255389,-0.086686 -0.04712,-0.030229 -0.07069,-0.075128 -0.07069,-0.1346967 0,-0.063126 0.02534,-0.1142477 0.07601,-0.1533675 0.05068,-0.039119 0.120917,-0.05868 0.210715,-0.05868 0.08713,0 0.159368,0.02445 0.216714,0.073349 0.05735,0.0489 0.08602,0.1071348 0.08602,0.1747058 v 0 h 0.248055 c 0,-0.1315851 -0.05091,-0.2396092 -0.152701,-0.3240724 -0.101793,-0.084464 -0.234494,-0.1266952 -0.398086,-0.1266952 -0.155591,0 -0.283397,0.040898 -0.383418,0.1226942 -0.100025,0.081795 -0.150035,0.1818182 -0.150035,0.3000668 0,0.071127 0.01756,0.1324738 0.05268,0.1840411 0.03511,0.051567 0.08935,0.096022 0.162703,0.1333629 0.07335,0.037343 0.172482,0.069349 0.297399,0.096021 0.124918,0.026674 0.212492,0.058457 0.262725,0.095354 0.05024,0.036897 0.07535,0.088688 0.07535,0.1553682 0,0.063125 -0.02823,0.1135809 -0.08469,0.151367 -0.05646,0.037786 -0.131362,0.056679 -0.224716,0.056679 -0.101356,0 -0.18293,-0.024226 -0.244722,-0.072682 -0.06179,-0.048456 -0.09492,-0.1140253 -0.09936,-0.1967104 v 0 h -0.246721 c 0,0.085353 0.02511,0.1647032 0.07535,0.238053 0.05024,0.073349 0.119805,0.1304736 0.208713,0.1713715 0.08891,0.040898 0.191154,0.061347 0.306736,0.061347 z m 1.36724,0 c 0.06134,0 0.124471,-0.00889 0.189374,-0.026674 v 0 -0.2000445 c -0.04979,0.010669 -0.08891,0.016002 -0.117359,0.016002 -0.05779,0 -0.09869,-0.014448 -0.122695,-0.043343 -0.024,-0.028895 -0.03601,-0.072238 -0.03601,-0.1300286 v 0 -0.8948665 h 0.269393 V 2.287949 h -0.26939 V 1.9385377 H 16.241875 V 2.287949 H 15.97915 v 0.1907092 h 0.262725 v 0.8948663 c 0,0.1226939 0.02801,0.2173817 0.08401,0.2840633 0.05602,0.066682 0.139142,0.1000228 0.24939,0.1000228 z m 1.137852,0 c 0.241833,0 0.423206,-0.092909 0.544122,-0.2787289 v 0 L 18.106559,3.3615219 c -0.04535,0.05868 -0.09824,0.1058011 -0.158704,0.1413646 -0.06046,0.035563 -0.134252,0.053346 -0.221382,0.053346 -0.122693,0 -0.223828,-0.043788 -0.303402,-0.1313625 -0.07958,-0.087575 -0.121137,-0.2024897 -0.124694,-0.3447436 v 0 h 0.977552 V 2.9774361 c 0,-0.2302737 -0.05201,-0.407202 -0.156035,-0.5307851 -0.104024,-0.123583 -0.249833,-0.1853746 -0.437431,-0.1853746 -0.114692,0 -0.22116,0.031785 -0.319406,0.095355 -0.09824,0.06357 -0.174704,0.1515894 -0.229383,0.2640588 -0.05468,0.1124697 -0.08202,0.2402759 -0.08202,0.383419 v 0 0.045343 c 0,0.2151589 0.06134,0.3869752 0.184041,0.5154482 0.122694,0.1284731 0.281841,0.1927098 0.47744,0.1927098 z m 0.316071,-0.880197 h -0.722828 c 0.01601,-0.130696 0.05779,-0.232274 0.125361,-0.3047347 0.06757,-0.07246 0.151145,-0.1086908 0.250723,-0.1086908 0.103134,0 0.18493,0.034452 0.245388,0.1033564 0.06047,0.068905 0.09425,0.1660368 0.101356,0.2913984 v 0 z m 0.847122,0.8535238 V 2.7027079 c 0.03378,-0.069349 0.08091,-0.1253611 0.141365,-0.1680373 0.06047,-0.042677 0.130697,-0.064014 0.210714,-0.064014 0.09869,0 0.171373,0.024895 0.218048,0.074683 0.04668,0.049789 0.07045,0.126695 0.07135,0.2307184 v 0 0.9548795 H 19.76453 V 2.7773914 c -0.0026,-0.3440767 -0.156482,-0.516115 -0.461439,-0.516115 -0.177818,0 -0.32185,0.06935 -0.432095,0.2080463 v 0 l -0.008,-0.1813737 h -0.2334 v 1.4429884 z m 2.665129,0.026674 c 0.129806,0 0.24472,-0.031118 0.344742,-0.093354 0.100024,-0.062235 0.176929,-0.1491442 0.230719,-0.2607247 0.05379,-0.1115805 0.08068,-0.2376085 0.08068,-0.3780845 v 0 -0.017336 c 0,-0.2258283 -0.06067,-0.4067574 -0.182042,-0.5427878 C 21.894203,2.329295 21.735278,2.2612798 21.53879,2.2612798 c -0.127138,0 -0.240275,0.030674 -0.339409,0.092021 -0.09913,0.061347 -0.176483,0.1484776 -0.232051,0.2613917 -0.05556,0.1129139 -0.08334,0.2400533 -0.08334,0.3814184 v 0 0.017336 c 0,0.2240498 0.06067,0.40409 0.182041,0.5401206 0.12136,0.1360303 0.279839,0.2040456 0.475439,0.2040456 z m 0,-0.2013785 c -0.124472,0 -0.223829,-0.048456 -0.298067,-0.1453656 -0.07424,-0.09691 -0.111358,-0.2253836 -0.111358,-0.3854194 0,-0.1804847 0.03734,-0.3191823 0.112025,-0.4160927 0.07468,-0.09691 0.172928,-0.1453657 0.294732,-0.1453657 0.124472,0 0.224273,0.049122 0.299399,0.1473661 0.07513,0.098244 0.112692,0.226495 0.112692,0.3847525 0,0.1769285 -0.0369,0.3145147 -0.110691,0.4127587 -0.07379,0.098244 -0.173372,0.1473661 -0.298732,0.1473661 z m 1.280551,0.1747052 V 2.702708 c 0.03378,-0.069349 0.08091,-0.1253611 0.141364,-0.1680373 0.06047,-0.042676 0.130696,-0.064014 0.210715,-0.064014 0.09869,0 0.171371,0.024895 0.218048,0.074683 0.04669,0.049789 0.07045,0.126695 0.07135,0.2307184 v 0 0.9548795 h 0.246722 V 2.7773914 c -0.0026,-0.3440767 -0.156481,-0.516115 -0.461438,-0.516115 -0.177818,0 -0.321849,0.06935 -0.432097,0.2080463 v 0 l -0.008,-0.1813737 h -0.233398 v 1.4429884 z"
       id="Listenon"
       fill="#5f6368"
       fill-rule="nonzero"
       style="stroke:none;stroke-width:0.27096" />
  </g>
</svg>
