<?xml version="1.0" encoding="UTF-8" standalone="no"?>
<svg
   xmlns:dc="http://purl.org/dc/elements/1.1/"
   xmlns:cc="http://creativecommons.org/ns#"
   xmlns:rdf="http://www.w3.org/1999/02/22-rdf-syntax-ns#"
   xmlns:svg="http://www.w3.org/2000/svg"
   xmlns="http://www.w3.org/2000/svg"
   xmlns:sodipodi="http://sodipodi.sourceforge.net/DTD/sodipodi-0.dtd"
   xmlns:inkscape="http://www.inkscape.org/namespaces/inkscape"
   width="165"
   height="40"
   viewBox="0 0 43.656249 10.583334"
   version="1.1"
   id="svg8"
   inkscape:version="1.0.1 (3bc2e813f5, 2020-09-07)"
   sodipodi:docname="spotify-podcast.svg">
  <defs
     id="defs2" />
  <sodipodi:namedview
     id="base"
     pagecolor="#ffffff"
     bordercolor="#666666"
     borderopacity="1.0"
     inkscape:pageopacity="0.0"
     inkscape:pageshadow="2"
     inkscape:zoom="5.3650794"
     inkscape:cx="70.055851"
     inkscape:cy="13.491122"
     inkscape:document-units="mm"
     inkscape:current-layer="layer1"
     inkscape:document-rotation="0"
     showgrid="false"
     units="px"
     inkscape:window-width="1920"
     inkscape:window-height="1016"
     inkscape:window-x="0"
     inkscape:window-y="27"
     inkscape:window-maximized="1" />
  <metadata
     id="metadata5">
    <rdf:RDF>
      <cc:Work
         rdf:about="">
        <dc:format>image/svg+xml</dc:format>
        <dc:type
           rdf:resource="http://purl.org/dc/dcmitype/StillImage" />
        <dc:title />
      </cc:Work>
    </rdf:RDF>
  </metadata>
  <g
     inkscape:label="Layer 1"
     inkscape:groupmode="layer"
     id="layer1">
    <rect
       style="fill:#ffffff;stroke:#e5e5e5;stroke-width:0.264408;stroke-miterlimit:4;stroke-dasharray:none"
       id="rect833"
       width="43.3699"
       height="10.318926"
       x="0.132204"
       y="0.132204"
       ry="1.6027956" />
    <path
       d="m 23.716485,4.9388797 c 0.13708,0.082043 0.314699,0.036493 0.396216,-0.101682 0.08148,-0.1379519 0.0364,-0.3164057 -0.101048,-0.3984493 -1.147299,-0.6848218 -2.962761,-0.7491941 -4.054867,-0.4158601 -0.152882,0.046702 -0.239051,0.2090438 -0.192754,0.362736 0.0463,0.1536182 0.207854,0.2403393 0.360626,0.1937489 0.951369,-0.2903448 2.595231,-0.2356245 3.591827,0.3595065 z m -0.03264,0.8814663 c 0.06967,-0.1138214 0.034,-0.2630588 -0.0793,-0.3332229 -0.954286,-0.5897107 -2.350199,-0.7556537 -3.473132,-0.4130387 -0.127223,0.03898 -0.199142,0.1741104 -0.160709,0.3022987 0.03869,0.1279284 0.173335,0.2002083 0.300817,0.1614881 0.982973,-0.300034 2.249927,-0.1512792 3.080792,0.3622908 0.113305,0.070015 0.261646,0.034265 0.331534,-0.079816 z m -0.37831,0.8465327 c 0.05556,-0.091324 0.02695,-0.2106771 -0.06391,-0.2664743 -0.814917,-0.500725 -1.825172,-0.6172565 -3.002893,-0.3465128 -0.103928,0.023797 -0.168684,0.1277056 -0.144908,0.2319861 0.02367,0.1042437 0.127002,0.1696185 0.230708,0.1457108 1.076193,-0.2472071 1.990016,-0.1464162 2.716068,0.2997742 0.09075,0.055834 0.209405,0.0271 0.264932,-0.064484 z m -1.41788,-4.4840662 c 1.707547,0 3.09172,1.3918436 3.09172,3.1088171 0,1.7170847 -1.384173,3.1088912 -3.09172,3.1088912 -1.707511,0 -3.091757,-1.3918065 -3.091757,-3.1088912 0,-1.7169735 1.384246,-3.1088171 3.091757,-3.1088171 z m 5.319791,2.87 c 0.650367,0.1590381 0.915594,0.405911 0.915594,0.8522869 0,0.5281597 -0.401347,0.8694383 -1.022438,0.8694383 -0.439044,0 -0.845855,-0.156885 -1.176687,-0.4538379 -0.01414,-0.012549 -0.01569,-0.034228 -0.0034,-0.048743 l 0.292252,-0.3497429 c 0.006,-0.00724 0.01458,-0.01162 0.02396,-0.012398 0.0089,-5.292e-4 0.01861,0.0023 0.02566,0.00839 0.284316,0.2475783 0.538504,0.3531211 0.850064,0.3531211 0.280548,0 0.45488,-0.1220628 0.45488,-0.3184104 0,-0.1772288 -0.08621,-0.276312 -0.597019,-0.3946255 C 26.370154,5.4124319 26.022856,5.223472 26.022856,4.689818 c 0,-0.4976437 0.402603,-0.8454562 0.978986,-0.8454562 0.392007,0 0.727379,0.1168286 1.025207,0.3571306 0.01445,0.011658 0.01736,0.032595 0.0066,0.047815 L 27.773,4.6187631 c -0.0055,0.00779 -0.01373,0.01292 -0.02307,0.01433 -0.0093,0.00148 -0.01884,-7.673e-4 -0.02641,-0.00646 C 27.473246,4.4390099 27.234602,4.347871 26.99389,4.347871 c -0.24832,0 -0.415341,0.1199841 -0.415341,0.2983635 0,0.1887371 0.09506,0.2785766 0.62888,0.4065794 z m 2.77163,0.5982491 c 0,-0.3708662 -0.236207,-0.639939 -0.561502,-0.639939 -0.326847,0 -0.573391,0.2750127 -0.573391,0.639939 0,0.3649636 0.246544,0.6399392 0.573391,0.6399392 0.330611,0 0.561502,-0.2630217 0.561502,-0.6399392 z M 29.528224,4.5234278 c 0.500215,0 1.006599,0.3873122 1.006599,1.1276338 0,0.7401734 -0.506384,1.1273742 -1.006599,1.1273742 -0.269143,0 -0.489993,-0.1003826 -0.672114,-0.3058999 V 7.334995 c 0,0.019415 -0.01566,0.03523 -0.03496,0.03523 h -0.477956 c -0.01931,0 -0.03492,-0.015814 -0.03492,-0.03523 V 4.6026128 c 0,-0.019415 0.01561,-0.035231 0.03492,-0.035231 h 0.477956 c 0.01931,0 0.03496,0.015814 0.03496,0.035231 v 0.2459077 c 0.182084,-0.2184733 0.402897,-0.3250927 0.672114,-0.3250927 z m 2.304602,1.7715082 c 0.345932,0 0.597019,-0.2672911 0.597019,-0.6358184 0,-0.3673025 -0.260056,-0.6441342 -0.604919,-0.6441342 -0.343681,0 -0.593069,0.2675136 -0.593069,0.6360782 0,0.3670427 0.258323,0.6438744 0.600969,0.6438744 z m 0,-1.7715082 c 0.642062,0 1.144826,0.495305 1.144826,1.1276338 0,0.6344449 -0.506235,1.1315692 -1.152726,1.1315692 -0.639771,0 -1.140987,-0.4935604 -1.140987,-1.1235132 0,-0.6368952 0.504685,-1.1356898 1.148887,-1.1356898 z m 2.520508,0.043954 c 0.01932,0 0.03485,0.015814 0.03485,0.035231 v 0.413076 c 0,0.019378 -0.01553,0.035193 -0.03485,0.035193 H 33.827348 V 6.044425 c 0,0.156922 0.06845,0.2269003 0.221771,0.2269003 0.0995,0 0.188511,-0.021495 0.280586,-0.068085 0.01066,-0.00531 0.02363,-0.00497 0.03404,0.00159 0.01029,0.00638 0.01662,0.01782 0.01662,0.029959 v 0.3933635 c 0,0.012549 -0.0068,0.024352 -0.01767,0.030478 -0.134053,0.076438 -0.276301,0.1120397 -0.447754,0.1120397 -0.421653,0 -0.635452,-0.218993 -0.635452,-0.6509279 v -1.068867 h -0.229823 c -0.01926,0 -0.03481,-0.015814 -0.03481,-0.035193 v -0.413076 c 0,-0.019415 0.01553,-0.035231 0.03481,-0.035231 h 0.229823 V 4.0266289 c 0,-0.019415 0.01572,-0.035193 0.03507,-0.035193 h 0.477917 c 0.01931,0 0.03489,0.015777 0.03489,0.035193 v 0.5407446 z m 1.832555,0.00212 h 0.816541 c 0.0145,0 0.02754,0.00899 0.03264,0.022646 l 0.558329,1.4650146 0.509744,-1.4640494 c 0.0049,-0.014108 0.01823,-0.023611 0.03312,-0.023611 h 0.497597 c 0.01159,0 0.0222,0.00575 0.02876,0.015259 0.0066,0.00965 0.0078,0.021865 0.0037,0.032706 l -0.829241,2.1546624 c -0.172006,0.4447423 -0.367086,0.6100916 -0.720035,0.6100916 -0.188656,0 -0.341352,-0.039314 -0.510479,-0.131418 -0.01617,-0.00876 -0.02275,-0.028585 -0.01503,-0.045477 l 0.162001,-0.3573904 c 0.0039,-0.00895 0.01156,-0.01574 0.02066,-0.019008 0.0092,-0.00286 0.01931,-0.00209 0.02784,0.00265 0.09068,0.049894 0.179353,0.075176 0.263568,0.075176 0.104185,0 0.180496,-0.034451 0.258101,-0.2076331 L 36.640046,5.0508924 h -0.44628 V 6.699558 c 0,0.019415 -0.01572,0.035193 -0.03504,0.035193 h -0.477953 c -0.01926,0 -0.03485,-0.015777 -0.03485,-0.035193 V 5.0508924 h -0.229635 c -0.01926,0 -0.03507,-0.015814 -0.03507,-0.035193 V 4.600507 c 0,-0.019378 0.0158,-0.035193 0.03507,-0.035193 h 0.229635 V 4.463595 c 0,-0.4726967 0.233331,-0.722688 0.674846,-0.722688 0.181422,0 0.302591,0.029105 0.397288,0.057393 0.01479,0.00457 0.02471,0.018301 0.02471,0.033746 v 0.4050202 c 0,0.011284 -0.0052,0.021939 -0.01445,0.028585 -0.009,0.00664 -0.02048,0.00839 -0.03153,0.0049 -0.08964,-0.03007 -0.16968,-0.049969 -0.269324,-0.049969 -0.167095,0 -0.241599,0.087129 -0.241599,0.2825117 z m -1.062384,-0.00212 c 0.01926,0 0.035,0.015814 0.035,0.035231 v 2.0969348 c 0,0.019415 -0.01572,0.035193 -0.035,0.035193 h -0.477994 c -0.01931,0 -0.035,-0.015777 -0.035,-0.035193 V 4.6026128 c 0,-0.019415 0.01569,-0.035231 0.035,-0.035231 z M 34.886928,3.6125965 c 0.189283,0 0.342794,0.1541751 0.342794,0.3445828 0,0.190482 -0.153511,0.3448052 -0.342794,0.3448052 -0.189323,0 -0.343017,-0.1543232 -0.343017,-0.3448052 0,-0.1904077 0.153694,-0.3445828 0.343017,-0.3445828 z m 4.207009,1.163384 h -0.08757 V 4.88828 h 0.08757 c 0.04371,0 0.06981,-0.021495 0.06981,-0.056205 0,-0.03653 -0.02609,-0.056094 -0.06981,-0.056094 z m 0.05678,0.1601891 0.09514,0.1339424 h -0.08023 l -0.08565,-0.1228423 h -0.07361 V 5.070112 h -0.06716 V 4.7150978 h 0.157459 c 0.082,0 0.135975,0.042173 0.135975,0.1132274 0,0.05821 -0.03345,0.093775 -0.08192,0.1078444 z m -0.07458,-0.3392368 c -0.172302,0 -0.3027,0.1377291 -0.3027,0.3063824 0,0.1685417 0.129474,0.3044518 0.300927,0.3044518 0.172265,0 0.302776,-0.137655 0.302776,-0.3063824 0,-0.1685788 -0.129551,-0.3044518 -0.301003,-0.3044518 z m -0.0019,0.6446538 c -0.189172,0 -0.336371,-0.1527641 -0.336371,-0.3382714 0,-0.1855446 0.149117,-0.3400165 0.338143,-0.3400165 0.189138,0 0.33637,0.152727 0.33637,0.3380859 0,0.1855075 -0.149005,0.340202 -0.338142,0.340202 z"
       id="Combined-Shape"
       fill="#1ed760"
       style="stroke-width:0.264583" />
    <path
       d="M 5.2648447,6.0600167 H 4.2438177 V 4.4655052 h 0.3103562 v 1.297649 h 0.7106708 z m 0.7401505,0 H 5.690141 V 4.4655052 H 6.0049952 Z M 7.6537248,4.8455792 7.3748539,4.9310396 C 7.3591112,4.8433302 7.2871446,4.7061438 7.0847383,4.7061438 c -0.1506802,0 -0.2496344,0.096705 -0.2496344,0.2024062 0,0.087709 0.056224,0.1574271 0.1731698,0.1799167 l 0.2226469,0.04273 c 0.2901156,0.056224 0.4452937,0.2451364 0.4452937,0.4700323 0,0.2451364 -0.2046552,0.4925218 -0.5757333,0.4925218 -0.4228041,0 -0.6094677,-0.2721239 -0.6342062,-0.4992687 l 0.2878666,-0.076465 c 0.013494,0.1574271 0.1236927,0.2991115 0.3485886,0.2991115 0.1664229,0 0.2586302,-0.083211 0.2586302,-0.1956594 0,-0.092207 -0.069718,-0.164174 -0.1934104,-0.1889125 L 6.9453029,5.3875781 c -0.2541323,-0.051726 -0.4183062,-0.2159 -0.4183062,-0.4565385 0,-0.2833688 0.2541322,-0.4992688 0.5554927,-0.4992688 0.3868208,0 0.535252,0.2338917 0.5712354,0.4138084 z m 1.680215,-0.08546 H 8.8301731 V 6.0600167 H 8.5175679 V 4.7601188 H 8.0138012 V 4.4655052 H 9.3339398 Z M 10.757774,6.0600167 H 9.759236 V 4.4655052 h 0.998538 V 4.7578698 H 10.069592 V 5.122201 h 0.622962 v 0.2766219 h -0.622962 v 0.3688292 h 0.688182 z m 1.864629,0 H 12.296304 L 11.57214,4.9287906 V 6.0600167 H 11.261783 V 4.4655052 h 0.386821 l 0.663443,1.0547615 V 4.4655052 h 0.310356 z m 1.50504,-0.7983802 c 0,0.3598333 0.251883,0.5307541 0.497019,0.5307541 0.247386,0 0.499269,-0.1709208 0.499269,-0.5307541 0,-0.3598334 -0.251883,-0.5307542 -0.499269,-0.5307542 -0.245136,0 -0.497019,0.1709208 -0.497019,0.5307542 z m -0.321602,0.00225 c 0,-0.5150114 0.386821,-0.8321146 0.818621,-0.8321146 0.434049,0 0.82087,0.3171032 0.82087,0.8321146 0,0.5127625 -0.386821,0.8298656 -0.82087,0.8298656 -0.4318,0 -0.818621,-0.3171031 -0.818621,-0.8298656 z m 3.481631,0.7961313 H 16.961373 L 16.237209,4.9287906 V 6.0600167 H 15.926852 V 4.4655052 h 0.386821 l 0.663443,1.0547615 V 4.4655052 h 0.310356 z"
       id="LISTEN-ON"
       fill="#000000"
       style="stroke-width:0.264583" />
  </g>
</svg>
